<mxfile host="app.diagrams.net" modified="2023-04-30T09:01:56.429Z" agent="Mozilla/5.0 (Windows NT 10.0; Win64; x64) AppleWebKit/537.36 (KHTML, like Gecko) Chrome/112.0.0.0 Safari/537.36" etag="zl_dF9C6BFL_0_4wwWnL" version="21.2.3" type="device">
  <diagram name="Страница 1" id="X-mfZElGtBCWNyIKxTyR">
    <mxGraphModel dx="989" dy="517" grid="1" gridSize="10" guides="1" tooltips="1" connect="1" arrows="1" fold="1" page="1" pageScale="1" pageWidth="827" pageHeight="1169" math="0" shadow="0">
      <root>
        <mxCell id="0" />
        <mxCell id="1" parent="0" />
        <mxCell id="6k7lIzAyDysnmoZ0ct8B-12" style="edgeStyle=orthogonalEdgeStyle;rounded=0;orthogonalLoop=1;jettySize=auto;html=1;entryX=0.5;entryY=0;entryDx=0;entryDy=0;" parent="1" source="6k7lIzAyDysnmoZ0ct8B-1" target="6k7lIzAyDysnmoZ0ct8B-3" edge="1">
          <mxGeometry relative="1" as="geometry" />
        </mxCell>
        <mxCell id="6k7lIzAyDysnmoZ0ct8B-26" value="c" style="edgeLabel;html=1;align=center;verticalAlign=middle;resizable=0;points=[];" parent="6k7lIzAyDysnmoZ0ct8B-12" vertex="1" connectable="0">
          <mxGeometry x="-0.2194" y="-1" relative="1" as="geometry">
            <mxPoint x="1" as="offset" />
          </mxGeometry>
        </mxCell>
        <mxCell id="6k7lIzAyDysnmoZ0ct8B-1" value="A" style="ellipse;whiteSpace=wrap;html=1;aspect=fixed;fontStyle=1;fontSize=18;" parent="1" vertex="1">
          <mxGeometry x="120" y="80" width="40" height="40" as="geometry" />
        </mxCell>
        <mxCell id="6k7lIzAyDysnmoZ0ct8B-17" style="edgeStyle=orthogonalEdgeStyle;rounded=0;orthogonalLoop=1;jettySize=auto;html=1;entryX=0;entryY=0.5;entryDx=0;entryDy=0;" parent="1" source="6k7lIzAyDysnmoZ0ct8B-2" target="6k7lIzAyDysnmoZ0ct8B-3" edge="1">
          <mxGeometry relative="1" as="geometry" />
        </mxCell>
        <mxCell id="6k7lIzAyDysnmoZ0ct8B-21" value="d" style="edgeLabel;html=1;align=center;verticalAlign=middle;resizable=0;points=[];" parent="6k7lIzAyDysnmoZ0ct8B-17" vertex="1" connectable="0">
          <mxGeometry x="0.2476" y="2" relative="1" as="geometry">
            <mxPoint x="-5" y="2" as="offset" />
          </mxGeometry>
        </mxCell>
        <mxCell id="6k7lIzAyDysnmoZ0ct8B-2" value="B" style="ellipse;whiteSpace=wrap;html=1;aspect=fixed;fontStyle=1;fontSize=18;" parent="1" vertex="1">
          <mxGeometry x="40" y="160" width="40" height="40" as="geometry" />
        </mxCell>
        <mxCell id="6k7lIzAyDysnmoZ0ct8B-36" style="edgeStyle=orthogonalEdgeStyle;rounded=0;orthogonalLoop=1;jettySize=auto;html=1;exitX=0;exitY=1;exitDx=0;exitDy=0;entryX=0;entryY=0;entryDx=0;entryDy=0;" parent="1" source="6k7lIzAyDysnmoZ0ct8B-3" target="6k7lIzAyDysnmoZ0ct8B-6" edge="1">
          <mxGeometry relative="1" as="geometry" />
        </mxCell>
        <mxCell id="6k7lIzAyDysnmoZ0ct8B-37" value="c" style="edgeLabel;html=1;align=center;verticalAlign=middle;resizable=0;points=[];" parent="6k7lIzAyDysnmoZ0ct8B-36" vertex="1" connectable="0">
          <mxGeometry x="-0.1805" y="-1" relative="1" as="geometry">
            <mxPoint y="5" as="offset" />
          </mxGeometry>
        </mxCell>
        <mxCell id="6k7lIzAyDysnmoZ0ct8B-3" value="C" style="ellipse;whiteSpace=wrap;html=1;aspect=fixed;fontStyle=1;fontSize=18;" parent="1" vertex="1">
          <mxGeometry x="120" y="160" width="40" height="40" as="geometry" />
        </mxCell>
        <mxCell id="6k7lIzAyDysnmoZ0ct8B-18" style="edgeStyle=orthogonalEdgeStyle;rounded=0;orthogonalLoop=1;jettySize=auto;html=1;entryX=1;entryY=0.5;entryDx=0;entryDy=0;" parent="1" source="6k7lIzAyDysnmoZ0ct8B-4" target="6k7lIzAyDysnmoZ0ct8B-3" edge="1">
          <mxGeometry relative="1" as="geometry">
            <Array as="points">
              <mxPoint x="170" y="180" />
              <mxPoint x="170" y="180" />
            </Array>
          </mxGeometry>
        </mxCell>
        <mxCell id="6k7lIzAyDysnmoZ0ct8B-25" value="d" style="edgeLabel;html=1;align=center;verticalAlign=middle;resizable=0;points=[];" parent="6k7lIzAyDysnmoZ0ct8B-18" vertex="1" connectable="0">
          <mxGeometry x="-0.0556" relative="1" as="geometry">
            <mxPoint as="offset" />
          </mxGeometry>
        </mxCell>
        <mxCell id="6k7lIzAyDysnmoZ0ct8B-4" value="D" style="ellipse;whiteSpace=wrap;html=1;aspect=fixed;fontStyle=1;fontSize=18;" parent="1" vertex="1">
          <mxGeometry x="200" y="160" width="40" height="40" as="geometry" />
        </mxCell>
        <mxCell id="6k7lIzAyDysnmoZ0ct8B-27" style="edgeStyle=orthogonalEdgeStyle;rounded=0;orthogonalLoop=1;jettySize=auto;html=1;entryX=0.5;entryY=1;entryDx=0;entryDy=0;" parent="1" source="6k7lIzAyDysnmoZ0ct8B-5" target="6k7lIzAyDysnmoZ0ct8B-2" edge="1">
          <mxGeometry relative="1" as="geometry">
            <Array as="points">
              <mxPoint x="60" y="220" />
              <mxPoint x="60" y="220" />
            </Array>
          </mxGeometry>
        </mxCell>
        <mxCell id="6k7lIzAyDysnmoZ0ct8B-28" value="—" style="edgeLabel;html=1;align=center;verticalAlign=middle;resizable=0;points=[];" parent="6k7lIzAyDysnmoZ0ct8B-27" vertex="1" connectable="0">
          <mxGeometry x="0.3" y="-1" relative="1" as="geometry">
            <mxPoint x="-1" y="6" as="offset" />
          </mxGeometry>
        </mxCell>
        <mxCell id="6k7lIzAyDysnmoZ0ct8B-5" value="E" style="ellipse;whiteSpace=wrap;html=1;aspect=fixed;fontStyle=1;fontSize=18;" parent="1" vertex="1">
          <mxGeometry x="40" y="240" width="40" height="40" as="geometry" />
        </mxCell>
        <mxCell id="6k7lIzAyDysnmoZ0ct8B-38" style="edgeStyle=orthogonalEdgeStyle;rounded=0;orthogonalLoop=1;jettySize=auto;html=1;exitX=1;exitY=0;exitDx=0;exitDy=0;entryX=1;entryY=1;entryDx=0;entryDy=0;" parent="1" source="6k7lIzAyDysnmoZ0ct8B-6" target="6k7lIzAyDysnmoZ0ct8B-3" edge="1">
          <mxGeometry relative="1" as="geometry" />
        </mxCell>
        <mxCell id="6k7lIzAyDysnmoZ0ct8B-39" value="z" style="edgeLabel;html=1;align=center;verticalAlign=middle;resizable=0;points=[];" parent="6k7lIzAyDysnmoZ0ct8B-38" vertex="1" connectable="0">
          <mxGeometry x="-0.2063" relative="1" as="geometry">
            <mxPoint y="-5" as="offset" />
          </mxGeometry>
        </mxCell>
        <mxCell id="6k7lIzAyDysnmoZ0ct8B-40" style="edgeStyle=orthogonalEdgeStyle;rounded=0;orthogonalLoop=1;jettySize=auto;html=1;entryX=0.5;entryY=0;entryDx=0;entryDy=0;" parent="1" source="6k7lIzAyDysnmoZ0ct8B-6" target="6k7lIzAyDysnmoZ0ct8B-8" edge="1">
          <mxGeometry relative="1" as="geometry" />
        </mxCell>
        <mxCell id="6k7lIzAyDysnmoZ0ct8B-41" value="⟂" style="edgeLabel;html=1;align=center;verticalAlign=middle;resizable=0;points=[];fontSize=10;" parent="6k7lIzAyDysnmoZ0ct8B-40" vertex="1" connectable="0">
          <mxGeometry x="0.1833" relative="1" as="geometry">
            <mxPoint y="-14" as="offset" />
          </mxGeometry>
        </mxCell>
        <mxCell id="6k7lIzAyDysnmoZ0ct8B-6" value="F" style="ellipse;whiteSpace=wrap;html=1;aspect=fixed;fontStyle=1;fontSize=18;" parent="1" vertex="1">
          <mxGeometry x="120" y="240" width="40" height="40" as="geometry" />
        </mxCell>
        <mxCell id="6k7lIzAyDysnmoZ0ct8B-29" style="edgeStyle=orthogonalEdgeStyle;rounded=0;orthogonalLoop=1;jettySize=auto;html=1;entryX=0.5;entryY=1;entryDx=0;entryDy=0;" parent="1" source="6k7lIzAyDysnmoZ0ct8B-7" target="6k7lIzAyDysnmoZ0ct8B-4" edge="1">
          <mxGeometry relative="1" as="geometry" />
        </mxCell>
        <mxCell id="6k7lIzAyDysnmoZ0ct8B-30" value="—" style="edgeLabel;html=1;align=center;verticalAlign=middle;resizable=0;points=[];" parent="6k7lIzAyDysnmoZ0ct8B-29" vertex="1" connectable="0">
          <mxGeometry x="0.2381" y="1" relative="1" as="geometry">
            <mxPoint x="1" y="5" as="offset" />
          </mxGeometry>
        </mxCell>
        <mxCell id="6k7lIzAyDysnmoZ0ct8B-7" value="G" style="ellipse;whiteSpace=wrap;html=1;aspect=fixed;fontStyle=1;fontSize=18;" parent="1" vertex="1">
          <mxGeometry x="200" y="240" width="40" height="40" as="geometry" />
        </mxCell>
        <mxCell id="6k7lIzAyDysnmoZ0ct8B-8" value="I" style="ellipse;whiteSpace=wrap;html=1;aspect=fixed;fontStyle=1;fontSize=18;" parent="1" vertex="1">
          <mxGeometry x="120" y="320" width="40" height="40" as="geometry" />
        </mxCell>
        <mxCell id="6k7lIzAyDysnmoZ0ct8B-46" style="edgeStyle=orthogonalEdgeStyle;rounded=0;orthogonalLoop=1;jettySize=auto;html=1;entryX=0.5;entryY=1;entryDx=0;entryDy=0;" parent="1" source="6k7lIzAyDysnmoZ0ct8B-9" target="6k7lIzAyDysnmoZ0ct8B-5" edge="1">
          <mxGeometry relative="1" as="geometry" />
        </mxCell>
        <mxCell id="6k7lIzAyDysnmoZ0ct8B-48" value="b" style="edgeLabel;html=1;align=center;verticalAlign=middle;resizable=0;points=[];" parent="6k7lIzAyDysnmoZ0ct8B-46" vertex="1" connectable="0">
          <mxGeometry x="-0.2" relative="1" as="geometry">
            <mxPoint y="-4" as="offset" />
          </mxGeometry>
        </mxCell>
        <mxCell id="6k7lIzAyDysnmoZ0ct8B-49" style="edgeStyle=orthogonalEdgeStyle;rounded=0;orthogonalLoop=1;jettySize=auto;html=1;entryX=0;entryY=0.5;entryDx=0;entryDy=0;" parent="1" source="6k7lIzAyDysnmoZ0ct8B-9" target="6k7lIzAyDysnmoZ0ct8B-8" edge="1">
          <mxGeometry relative="1" as="geometry" />
        </mxCell>
        <mxCell id="6k7lIzAyDysnmoZ0ct8B-50" value="a" style="edgeLabel;html=1;align=center;verticalAlign=middle;resizable=0;points=[];" parent="6k7lIzAyDysnmoZ0ct8B-49" vertex="1" connectable="0">
          <mxGeometry x="-0.2" relative="1" as="geometry">
            <mxPoint as="offset" />
          </mxGeometry>
        </mxCell>
        <mxCell id="6k7lIzAyDysnmoZ0ct8B-9" value="H" style="ellipse;whiteSpace=wrap;html=1;aspect=fixed;fontStyle=1;fontSize=18;" parent="1" vertex="1">
          <mxGeometry x="40" y="320" width="40" height="40" as="geometry" />
        </mxCell>
        <mxCell id="6k7lIzAyDysnmoZ0ct8B-52" style="edgeStyle=orthogonalEdgeStyle;rounded=0;orthogonalLoop=1;jettySize=auto;html=1;entryX=1;entryY=0.5;entryDx=0;entryDy=0;" parent="1" source="6k7lIzAyDysnmoZ0ct8B-10" target="6k7lIzAyDysnmoZ0ct8B-8" edge="1">
          <mxGeometry relative="1" as="geometry" />
        </mxCell>
        <mxCell id="6k7lIzAyDysnmoZ0ct8B-53" value="b" style="edgeLabel;html=1;align=center;verticalAlign=middle;resizable=0;points=[];" parent="6k7lIzAyDysnmoZ0ct8B-52" vertex="1" connectable="0">
          <mxGeometry x="-0.2" relative="1" as="geometry">
            <mxPoint as="offset" />
          </mxGeometry>
        </mxCell>
        <mxCell id="6k7lIzAyDysnmoZ0ct8B-54" style="edgeStyle=orthogonalEdgeStyle;rounded=0;orthogonalLoop=1;jettySize=auto;html=1;entryX=0.5;entryY=1;entryDx=0;entryDy=0;" parent="1" source="6k7lIzAyDysnmoZ0ct8B-10" target="6k7lIzAyDysnmoZ0ct8B-7" edge="1">
          <mxGeometry relative="1" as="geometry" />
        </mxCell>
        <mxCell id="6k7lIzAyDysnmoZ0ct8B-55" value="a" style="edgeLabel;html=1;align=center;verticalAlign=middle;resizable=0;points=[];" parent="6k7lIzAyDysnmoZ0ct8B-54" vertex="1" connectable="0">
          <mxGeometry x="0.24" relative="1" as="geometry">
            <mxPoint y="5" as="offset" />
          </mxGeometry>
        </mxCell>
        <mxCell id="6k7lIzAyDysnmoZ0ct8B-10" value="J" style="ellipse;whiteSpace=wrap;html=1;aspect=fixed;fontStyle=1;fontSize=18;" parent="1" vertex="1">
          <mxGeometry x="200" y="320" width="40" height="40" as="geometry" />
        </mxCell>
        <mxCell id="6k7lIzAyDysnmoZ0ct8B-11" value="" style="endArrow=classic;html=1;rounded=0;entryX=0.5;entryY=0;entryDx=0;entryDy=0;" parent="1" target="6k7lIzAyDysnmoZ0ct8B-1" edge="1">
          <mxGeometry width="50" height="50" relative="1" as="geometry">
            <mxPoint x="140" y="40" as="sourcePoint" />
            <mxPoint x="220" y="170" as="targetPoint" />
          </mxGeometry>
        </mxCell>
        <mxCell id="6k7lIzAyDysnmoZ0ct8B-32" value="" style="endArrow=classic;html=1;rounded=0;entryX=1;entryY=0;entryDx=0;entryDy=0;exitX=0;exitY=1;exitDx=0;exitDy=0;" parent="1" source="6k7lIzAyDysnmoZ0ct8B-3" target="6k7lIzAyDysnmoZ0ct8B-5" edge="1">
          <mxGeometry width="50" height="50" relative="1" as="geometry">
            <mxPoint x="100" y="230" as="sourcePoint" />
            <mxPoint x="160" y="200" as="targetPoint" />
          </mxGeometry>
        </mxCell>
        <mxCell id="6k7lIzAyDysnmoZ0ct8B-33" value="a" style="edgeLabel;html=1;align=center;verticalAlign=middle;resizable=0;points=[];" parent="6k7lIzAyDysnmoZ0ct8B-32" vertex="1" connectable="0">
          <mxGeometry x="-0.2088" y="2" relative="1" as="geometry">
            <mxPoint x="-7" y="-6" as="offset" />
          </mxGeometry>
        </mxCell>
        <mxCell id="6k7lIzAyDysnmoZ0ct8B-34" value="" style="endArrow=classic;html=1;rounded=0;entryX=0;entryY=0;entryDx=0;entryDy=0;exitX=1;exitY=1;exitDx=0;exitDy=0;" parent="1" source="6k7lIzAyDysnmoZ0ct8B-3" target="6k7lIzAyDysnmoZ0ct8B-7" edge="1">
          <mxGeometry width="50" height="50" relative="1" as="geometry">
            <mxPoint x="136" y="204" as="sourcePoint" />
            <mxPoint x="84" y="256" as="targetPoint" />
          </mxGeometry>
        </mxCell>
        <mxCell id="6k7lIzAyDysnmoZ0ct8B-35" value="b" style="edgeLabel;html=1;align=center;verticalAlign=middle;resizable=0;points=[];" parent="6k7lIzAyDysnmoZ0ct8B-34" vertex="1" connectable="0">
          <mxGeometry x="-0.2088" y="2" relative="1" as="geometry">
            <mxPoint x="4" y="-3" as="offset" />
          </mxGeometry>
        </mxCell>
        <mxCell id="6k7lIzAyDysnmoZ0ct8B-42" value="" style="endArrow=classic;html=1;rounded=0;exitX=1;exitY=1;exitDx=0;exitDy=0;entryX=0;entryY=0;entryDx=0;entryDy=0;" parent="1" source="6k7lIzAyDysnmoZ0ct8B-5" target="6k7lIzAyDysnmoZ0ct8B-8" edge="1">
          <mxGeometry width="50" height="50" relative="1" as="geometry">
            <mxPoint x="100" y="280" as="sourcePoint" />
            <mxPoint x="150" y="230" as="targetPoint" />
          </mxGeometry>
        </mxCell>
        <mxCell id="6k7lIzAyDysnmoZ0ct8B-44" value="⟂" style="edgeLabel;html=1;align=center;verticalAlign=middle;resizable=0;points=[];fontSize=10;" parent="6k7lIzAyDysnmoZ0ct8B-42" vertex="1" connectable="0">
          <mxGeometry x="0.0462" y="-1" relative="1" as="geometry">
            <mxPoint y="-12" as="offset" />
          </mxGeometry>
        </mxCell>
        <mxCell id="6k7lIzAyDysnmoZ0ct8B-43" value="" style="endArrow=classic;html=1;rounded=0;exitX=0;exitY=1;exitDx=0;exitDy=0;entryX=1;entryY=0;entryDx=0;entryDy=0;" parent="1" source="6k7lIzAyDysnmoZ0ct8B-7" target="6k7lIzAyDysnmoZ0ct8B-8" edge="1">
          <mxGeometry width="50" height="50" relative="1" as="geometry">
            <mxPoint x="150" y="290" as="sourcePoint" />
            <mxPoint x="200" y="240" as="targetPoint" />
          </mxGeometry>
        </mxCell>
        <mxCell id="6k7lIzAyDysnmoZ0ct8B-45" value="⟂" style="edgeLabel;html=1;align=center;verticalAlign=middle;resizable=0;points=[];fontSize=10;" parent="6k7lIzAyDysnmoZ0ct8B-43" vertex="1" connectable="0">
          <mxGeometry x="0.1316" relative="1" as="geometry">
            <mxPoint x="3" y="-13" as="offset" />
          </mxGeometry>
        </mxCell>
        <mxCell id="m83WT8vD0n_hC-5zdwhu-1" style="edgeStyle=orthogonalEdgeStyle;rounded=0;orthogonalLoop=1;jettySize=auto;html=1;entryX=0.5;entryY=0;entryDx=0;entryDy=0;" edge="1" parent="1" source="m83WT8vD0n_hC-5zdwhu-3" target="m83WT8vD0n_hC-5zdwhu-9">
          <mxGeometry relative="1" as="geometry" />
        </mxCell>
        <mxCell id="m83WT8vD0n_hC-5zdwhu-2" value="c" style="edgeLabel;html=1;align=center;verticalAlign=middle;resizable=0;points=[];" vertex="1" connectable="0" parent="m83WT8vD0n_hC-5zdwhu-1">
          <mxGeometry x="-0.2194" y="-1" relative="1" as="geometry">
            <mxPoint x="1" as="offset" />
          </mxGeometry>
        </mxCell>
        <mxCell id="m83WT8vD0n_hC-5zdwhu-3" value="A" style="ellipse;whiteSpace=wrap;html=1;aspect=fixed;fontStyle=1;fontSize=18;" vertex="1" parent="1">
          <mxGeometry x="400" y="80" width="40" height="40" as="geometry" />
        </mxCell>
        <mxCell id="m83WT8vD0n_hC-5zdwhu-4" style="edgeStyle=orthogonalEdgeStyle;rounded=0;orthogonalLoop=1;jettySize=auto;html=1;entryX=0;entryY=0.5;entryDx=0;entryDy=0;" edge="1" parent="1" source="m83WT8vD0n_hC-5zdwhu-6" target="m83WT8vD0n_hC-5zdwhu-9">
          <mxGeometry relative="1" as="geometry" />
        </mxCell>
        <mxCell id="m83WT8vD0n_hC-5zdwhu-5" value="d" style="edgeLabel;html=1;align=center;verticalAlign=middle;resizable=0;points=[];" vertex="1" connectable="0" parent="m83WT8vD0n_hC-5zdwhu-4">
          <mxGeometry x="0.2476" y="2" relative="1" as="geometry">
            <mxPoint x="-5" y="2" as="offset" />
          </mxGeometry>
        </mxCell>
        <mxCell id="m83WT8vD0n_hC-5zdwhu-6" value="B" style="ellipse;whiteSpace=wrap;html=1;aspect=fixed;fontStyle=1;fontSize=18;" vertex="1" parent="1">
          <mxGeometry x="320" y="160" width="40" height="40" as="geometry" />
        </mxCell>
        <mxCell id="m83WT8vD0n_hC-5zdwhu-7" style="edgeStyle=orthogonalEdgeStyle;rounded=0;orthogonalLoop=1;jettySize=auto;html=1;exitX=0;exitY=1;exitDx=0;exitDy=0;entryX=0;entryY=0;entryDx=0;entryDy=0;" edge="1" parent="1" source="m83WT8vD0n_hC-5zdwhu-9" target="m83WT8vD0n_hC-5zdwhu-20">
          <mxGeometry relative="1" as="geometry" />
        </mxCell>
        <mxCell id="m83WT8vD0n_hC-5zdwhu-8" value="c" style="edgeLabel;html=1;align=center;verticalAlign=middle;resizable=0;points=[];" vertex="1" connectable="0" parent="m83WT8vD0n_hC-5zdwhu-7">
          <mxGeometry x="-0.1805" y="-1" relative="1" as="geometry">
            <mxPoint y="5" as="offset" />
          </mxGeometry>
        </mxCell>
        <mxCell id="m83WT8vD0n_hC-5zdwhu-9" value="C" style="ellipse;whiteSpace=wrap;html=1;aspect=fixed;fontStyle=1;fontSize=18;" vertex="1" parent="1">
          <mxGeometry x="400" y="160" width="40" height="40" as="geometry" />
        </mxCell>
        <mxCell id="m83WT8vD0n_hC-5zdwhu-10" style="edgeStyle=orthogonalEdgeStyle;rounded=0;orthogonalLoop=1;jettySize=auto;html=1;entryX=1;entryY=0.5;entryDx=0;entryDy=0;" edge="1" parent="1" source="m83WT8vD0n_hC-5zdwhu-12" target="m83WT8vD0n_hC-5zdwhu-9">
          <mxGeometry relative="1" as="geometry">
            <Array as="points">
              <mxPoint x="450" y="180" />
              <mxPoint x="450" y="180" />
            </Array>
          </mxGeometry>
        </mxCell>
        <mxCell id="m83WT8vD0n_hC-5zdwhu-11" value="d" style="edgeLabel;html=1;align=center;verticalAlign=middle;resizable=0;points=[];" vertex="1" connectable="0" parent="m83WT8vD0n_hC-5zdwhu-10">
          <mxGeometry x="-0.0556" relative="1" as="geometry">
            <mxPoint as="offset" />
          </mxGeometry>
        </mxCell>
        <mxCell id="m83WT8vD0n_hC-5zdwhu-12" value="D" style="ellipse;whiteSpace=wrap;html=1;aspect=fixed;fontStyle=1;fontSize=18;" vertex="1" parent="1">
          <mxGeometry x="480" y="160" width="40" height="40" as="geometry" />
        </mxCell>
        <mxCell id="m83WT8vD0n_hC-5zdwhu-13" style="edgeStyle=orthogonalEdgeStyle;rounded=0;orthogonalLoop=1;jettySize=auto;html=1;entryX=0.5;entryY=1;entryDx=0;entryDy=0;" edge="1" parent="1" source="m83WT8vD0n_hC-5zdwhu-15" target="m83WT8vD0n_hC-5zdwhu-6">
          <mxGeometry relative="1" as="geometry">
            <Array as="points">
              <mxPoint x="340" y="220" />
              <mxPoint x="340" y="220" />
            </Array>
          </mxGeometry>
        </mxCell>
        <mxCell id="m83WT8vD0n_hC-5zdwhu-14" value="—" style="edgeLabel;html=1;align=center;verticalAlign=middle;resizable=0;points=[];" vertex="1" connectable="0" parent="m83WT8vD0n_hC-5zdwhu-13">
          <mxGeometry x="0.3" y="-1" relative="1" as="geometry">
            <mxPoint x="-1" y="6" as="offset" />
          </mxGeometry>
        </mxCell>
        <mxCell id="m83WT8vD0n_hC-5zdwhu-15" value="E" style="ellipse;whiteSpace=wrap;html=1;aspect=fixed;fontStyle=1;fontSize=18;" vertex="1" parent="1">
          <mxGeometry x="320" y="240" width="40" height="40" as="geometry" />
        </mxCell>
        <mxCell id="m83WT8vD0n_hC-5zdwhu-16" style="edgeStyle=orthogonalEdgeStyle;rounded=0;orthogonalLoop=1;jettySize=auto;html=1;exitX=1;exitY=0;exitDx=0;exitDy=0;entryX=1;entryY=1;entryDx=0;entryDy=0;" edge="1" parent="1" source="m83WT8vD0n_hC-5zdwhu-20" target="m83WT8vD0n_hC-5zdwhu-9">
          <mxGeometry relative="1" as="geometry" />
        </mxCell>
        <mxCell id="m83WT8vD0n_hC-5zdwhu-17" value="z" style="edgeLabel;html=1;align=center;verticalAlign=middle;resizable=0;points=[];" vertex="1" connectable="0" parent="m83WT8vD0n_hC-5zdwhu-16">
          <mxGeometry x="-0.2063" relative="1" as="geometry">
            <mxPoint y="-5" as="offset" />
          </mxGeometry>
        </mxCell>
        <mxCell id="m83WT8vD0n_hC-5zdwhu-18" style="edgeStyle=orthogonalEdgeStyle;rounded=0;orthogonalLoop=1;jettySize=auto;html=1;entryX=0.5;entryY=0;entryDx=0;entryDy=0;" edge="1" parent="1" source="m83WT8vD0n_hC-5zdwhu-20" target="m83WT8vD0n_hC-5zdwhu-24">
          <mxGeometry relative="1" as="geometry" />
        </mxCell>
        <mxCell id="m83WT8vD0n_hC-5zdwhu-19" value="⟂" style="edgeLabel;html=1;align=center;verticalAlign=middle;resizable=0;points=[];fontSize=10;" vertex="1" connectable="0" parent="m83WT8vD0n_hC-5zdwhu-18">
          <mxGeometry x="0.1833" relative="1" as="geometry">
            <mxPoint y="-14" as="offset" />
          </mxGeometry>
        </mxCell>
        <mxCell id="m83WT8vD0n_hC-5zdwhu-20" value="F" style="ellipse;whiteSpace=wrap;html=1;aspect=fixed;fontStyle=1;fontSize=18;" vertex="1" parent="1">
          <mxGeometry x="400" y="240" width="40" height="40" as="geometry" />
        </mxCell>
        <mxCell id="m83WT8vD0n_hC-5zdwhu-21" style="edgeStyle=orthogonalEdgeStyle;rounded=0;orthogonalLoop=1;jettySize=auto;html=1;entryX=0.5;entryY=1;entryDx=0;entryDy=0;" edge="1" parent="1" source="m83WT8vD0n_hC-5zdwhu-23" target="m83WT8vD0n_hC-5zdwhu-12">
          <mxGeometry relative="1" as="geometry" />
        </mxCell>
        <mxCell id="m83WT8vD0n_hC-5zdwhu-22" value="—" style="edgeLabel;html=1;align=center;verticalAlign=middle;resizable=0;points=[];" vertex="1" connectable="0" parent="m83WT8vD0n_hC-5zdwhu-21">
          <mxGeometry x="0.2381" y="1" relative="1" as="geometry">
            <mxPoint x="1" y="5" as="offset" />
          </mxGeometry>
        </mxCell>
        <mxCell id="m83WT8vD0n_hC-5zdwhu-23" value="G" style="ellipse;whiteSpace=wrap;html=1;aspect=fixed;fontStyle=1;fontSize=18;" vertex="1" parent="1">
          <mxGeometry x="480" y="240" width="40" height="40" as="geometry" />
        </mxCell>
        <mxCell id="m83WT8vD0n_hC-5zdwhu-24" value="I" style="ellipse;whiteSpace=wrap;html=1;aspect=fixed;fontStyle=1;fontSize=18;" vertex="1" parent="1">
          <mxGeometry x="400" y="320" width="40" height="40" as="geometry" />
        </mxCell>
        <mxCell id="m83WT8vD0n_hC-5zdwhu-35" value="" style="endArrow=classic;html=1;rounded=0;entryX=0.5;entryY=0;entryDx=0;entryDy=0;" edge="1" parent="1" target="m83WT8vD0n_hC-5zdwhu-3">
          <mxGeometry width="50" height="50" relative="1" as="geometry">
            <mxPoint x="420" y="40" as="sourcePoint" />
            <mxPoint x="500" y="170" as="targetPoint" />
          </mxGeometry>
        </mxCell>
        <mxCell id="m83WT8vD0n_hC-5zdwhu-36" value="" style="endArrow=classic;html=1;rounded=0;entryX=1;entryY=0;entryDx=0;entryDy=0;exitX=0;exitY=1;exitDx=0;exitDy=0;" edge="1" parent="1" source="m83WT8vD0n_hC-5zdwhu-9" target="m83WT8vD0n_hC-5zdwhu-15">
          <mxGeometry width="50" height="50" relative="1" as="geometry">
            <mxPoint x="380" y="230" as="sourcePoint" />
            <mxPoint x="440" y="200" as="targetPoint" />
          </mxGeometry>
        </mxCell>
        <mxCell id="m83WT8vD0n_hC-5zdwhu-37" value="a" style="edgeLabel;html=1;align=center;verticalAlign=middle;resizable=0;points=[];" vertex="1" connectable="0" parent="m83WT8vD0n_hC-5zdwhu-36">
          <mxGeometry x="-0.2088" y="2" relative="1" as="geometry">
            <mxPoint x="-7" y="-6" as="offset" />
          </mxGeometry>
        </mxCell>
        <mxCell id="m83WT8vD0n_hC-5zdwhu-38" value="" style="endArrow=classic;html=1;rounded=0;entryX=0;entryY=0;entryDx=0;entryDy=0;exitX=1;exitY=1;exitDx=0;exitDy=0;" edge="1" parent="1" source="m83WT8vD0n_hC-5zdwhu-9" target="m83WT8vD0n_hC-5zdwhu-23">
          <mxGeometry width="50" height="50" relative="1" as="geometry">
            <mxPoint x="416" y="204" as="sourcePoint" />
            <mxPoint x="364" y="256" as="targetPoint" />
          </mxGeometry>
        </mxCell>
        <mxCell id="m83WT8vD0n_hC-5zdwhu-39" value="b" style="edgeLabel;html=1;align=center;verticalAlign=middle;resizable=0;points=[];" vertex="1" connectable="0" parent="m83WT8vD0n_hC-5zdwhu-38">
          <mxGeometry x="-0.2088" y="2" relative="1" as="geometry">
            <mxPoint x="4" y="-3" as="offset" />
          </mxGeometry>
        </mxCell>
        <mxCell id="m83WT8vD0n_hC-5zdwhu-40" value="" style="endArrow=classic;html=1;rounded=0;exitX=1;exitY=1;exitDx=0;exitDy=0;entryX=0;entryY=0;entryDx=0;entryDy=0;" edge="1" parent="1" source="m83WT8vD0n_hC-5zdwhu-15" target="m83WT8vD0n_hC-5zdwhu-24">
          <mxGeometry width="50" height="50" relative="1" as="geometry">
            <mxPoint x="380" y="280" as="sourcePoint" />
            <mxPoint x="430" y="230" as="targetPoint" />
          </mxGeometry>
        </mxCell>
        <mxCell id="m83WT8vD0n_hC-5zdwhu-41" value="⟂" style="edgeLabel;html=1;align=center;verticalAlign=middle;resizable=0;points=[];fontSize=10;" vertex="1" connectable="0" parent="m83WT8vD0n_hC-5zdwhu-40">
          <mxGeometry x="0.0462" y="-1" relative="1" as="geometry">
            <mxPoint y="-12" as="offset" />
          </mxGeometry>
        </mxCell>
        <mxCell id="m83WT8vD0n_hC-5zdwhu-42" value="" style="endArrow=classic;html=1;rounded=0;exitX=0;exitY=1;exitDx=0;exitDy=0;entryX=1;entryY=0;entryDx=0;entryDy=0;" edge="1" parent="1" source="m83WT8vD0n_hC-5zdwhu-23" target="m83WT8vD0n_hC-5zdwhu-24">
          <mxGeometry width="50" height="50" relative="1" as="geometry">
            <mxPoint x="430" y="290" as="sourcePoint" />
            <mxPoint x="480" y="240" as="targetPoint" />
          </mxGeometry>
        </mxCell>
        <mxCell id="m83WT8vD0n_hC-5zdwhu-43" value="⟂" style="edgeLabel;html=1;align=center;verticalAlign=middle;resizable=0;points=[];fontSize=10;" vertex="1" connectable="0" parent="m83WT8vD0n_hC-5zdwhu-42">
          <mxGeometry x="0.1316" relative="1" as="geometry">
            <mxPoint x="3" y="-13" as="offset" />
          </mxGeometry>
        </mxCell>
        <mxCell id="m83WT8vD0n_hC-5zdwhu-44" style="edgeStyle=orthogonalEdgeStyle;rounded=0;orthogonalLoop=1;jettySize=auto;html=1;entryX=0.5;entryY=0;entryDx=0;entryDy=0;" edge="1" parent="1" source="m83WT8vD0n_hC-5zdwhu-46" target="m83WT8vD0n_hC-5zdwhu-52">
          <mxGeometry relative="1" as="geometry" />
        </mxCell>
        <mxCell id="m83WT8vD0n_hC-5zdwhu-45" value="c" style="edgeLabel;html=1;align=center;verticalAlign=middle;resizable=0;points=[];" vertex="1" connectable="0" parent="m83WT8vD0n_hC-5zdwhu-44">
          <mxGeometry x="-0.2194" y="-1" relative="1" as="geometry">
            <mxPoint x="1" as="offset" />
          </mxGeometry>
        </mxCell>
        <mxCell id="m83WT8vD0n_hC-5zdwhu-46" value="A" style="ellipse;whiteSpace=wrap;html=1;aspect=fixed;fontStyle=1;fontSize=18;" vertex="1" parent="1">
          <mxGeometry x="680" y="80" width="40" height="40" as="geometry" />
        </mxCell>
        <mxCell id="m83WT8vD0n_hC-5zdwhu-47" style="edgeStyle=orthogonalEdgeStyle;rounded=0;orthogonalLoop=1;jettySize=auto;html=1;entryX=0;entryY=0.5;entryDx=0;entryDy=0;" edge="1" parent="1" source="m83WT8vD0n_hC-5zdwhu-49" target="m83WT8vD0n_hC-5zdwhu-52">
          <mxGeometry relative="1" as="geometry" />
        </mxCell>
        <mxCell id="m83WT8vD0n_hC-5zdwhu-48" value="d" style="edgeLabel;html=1;align=center;verticalAlign=middle;resizable=0;points=[];" vertex="1" connectable="0" parent="m83WT8vD0n_hC-5zdwhu-47">
          <mxGeometry x="0.2476" y="2" relative="1" as="geometry">
            <mxPoint x="-5" y="2" as="offset" />
          </mxGeometry>
        </mxCell>
        <mxCell id="m83WT8vD0n_hC-5zdwhu-49" value="B" style="ellipse;whiteSpace=wrap;html=1;aspect=fixed;fontStyle=1;fontSize=18;" vertex="1" parent="1">
          <mxGeometry x="600" y="160" width="40" height="40" as="geometry" />
        </mxCell>
        <mxCell id="m83WT8vD0n_hC-5zdwhu-50" style="edgeStyle=orthogonalEdgeStyle;rounded=0;orthogonalLoop=1;jettySize=auto;html=1;exitX=0;exitY=1;exitDx=0;exitDy=0;entryX=0;entryY=0;entryDx=0;entryDy=0;" edge="1" parent="1" source="m83WT8vD0n_hC-5zdwhu-52" target="m83WT8vD0n_hC-5zdwhu-63">
          <mxGeometry relative="1" as="geometry" />
        </mxCell>
        <mxCell id="m83WT8vD0n_hC-5zdwhu-51" value="c" style="edgeLabel;html=1;align=center;verticalAlign=middle;resizable=0;points=[];" vertex="1" connectable="0" parent="m83WT8vD0n_hC-5zdwhu-50">
          <mxGeometry x="-0.1805" y="-1" relative="1" as="geometry">
            <mxPoint y="5" as="offset" />
          </mxGeometry>
        </mxCell>
        <mxCell id="m83WT8vD0n_hC-5zdwhu-52" value="C" style="ellipse;whiteSpace=wrap;html=1;aspect=fixed;fontStyle=1;fontSize=18;" vertex="1" parent="1">
          <mxGeometry x="680" y="160" width="40" height="40" as="geometry" />
        </mxCell>
        <mxCell id="m83WT8vD0n_hC-5zdwhu-56" style="edgeStyle=orthogonalEdgeStyle;rounded=0;orthogonalLoop=1;jettySize=auto;html=1;entryX=0.5;entryY=1;entryDx=0;entryDy=0;" edge="1" parent="1" source="m83WT8vD0n_hC-5zdwhu-58" target="m83WT8vD0n_hC-5zdwhu-49">
          <mxGeometry relative="1" as="geometry">
            <Array as="points">
              <mxPoint x="620" y="220" />
              <mxPoint x="620" y="220" />
            </Array>
          </mxGeometry>
        </mxCell>
        <mxCell id="m83WT8vD0n_hC-5zdwhu-57" value="—" style="edgeLabel;html=1;align=center;verticalAlign=middle;resizable=0;points=[];" vertex="1" connectable="0" parent="m83WT8vD0n_hC-5zdwhu-56">
          <mxGeometry x="0.3" y="-1" relative="1" as="geometry">
            <mxPoint x="-1" y="6" as="offset" />
          </mxGeometry>
        </mxCell>
        <mxCell id="m83WT8vD0n_hC-5zdwhu-58" value="E" style="ellipse;whiteSpace=wrap;html=1;aspect=fixed;fontStyle=1;fontSize=18;" vertex="1" parent="1">
          <mxGeometry x="600" y="240" width="40" height="40" as="geometry" />
        </mxCell>
        <mxCell id="m83WT8vD0n_hC-5zdwhu-59" style="edgeStyle=orthogonalEdgeStyle;rounded=0;orthogonalLoop=1;jettySize=auto;html=1;exitX=1;exitY=0;exitDx=0;exitDy=0;entryX=1;entryY=1;entryDx=0;entryDy=0;" edge="1" parent="1" source="m83WT8vD0n_hC-5zdwhu-63" target="m83WT8vD0n_hC-5zdwhu-52">
          <mxGeometry relative="1" as="geometry" />
        </mxCell>
        <mxCell id="m83WT8vD0n_hC-5zdwhu-60" value="z" style="edgeLabel;html=1;align=center;verticalAlign=middle;resizable=0;points=[];" vertex="1" connectable="0" parent="m83WT8vD0n_hC-5zdwhu-59">
          <mxGeometry x="-0.2063" relative="1" as="geometry">
            <mxPoint y="-5" as="offset" />
          </mxGeometry>
        </mxCell>
        <mxCell id="m83WT8vD0n_hC-5zdwhu-61" style="edgeStyle=orthogonalEdgeStyle;rounded=0;orthogonalLoop=1;jettySize=auto;html=1;entryX=0.5;entryY=0;entryDx=0;entryDy=0;" edge="1" parent="1" source="m83WT8vD0n_hC-5zdwhu-63" target="m83WT8vD0n_hC-5zdwhu-67">
          <mxGeometry relative="1" as="geometry" />
        </mxCell>
        <mxCell id="m83WT8vD0n_hC-5zdwhu-62" value="⟂" style="edgeLabel;html=1;align=center;verticalAlign=middle;resizable=0;points=[];fontSize=10;" vertex="1" connectable="0" parent="m83WT8vD0n_hC-5zdwhu-61">
          <mxGeometry x="0.1833" relative="1" as="geometry">
            <mxPoint y="-14" as="offset" />
          </mxGeometry>
        </mxCell>
        <mxCell id="m83WT8vD0n_hC-5zdwhu-63" value="F" style="ellipse;whiteSpace=wrap;html=1;aspect=fixed;fontStyle=1;fontSize=18;" vertex="1" parent="1">
          <mxGeometry x="680" y="240" width="40" height="40" as="geometry" />
        </mxCell>
        <mxCell id="m83WT8vD0n_hC-5zdwhu-67" value="I" style="ellipse;whiteSpace=wrap;html=1;aspect=fixed;fontStyle=1;fontSize=18;" vertex="1" parent="1">
          <mxGeometry x="680" y="320" width="40" height="40" as="geometry" />
        </mxCell>
        <mxCell id="m83WT8vD0n_hC-5zdwhu-68" value="" style="endArrow=classic;html=1;rounded=0;entryX=0.5;entryY=0;entryDx=0;entryDy=0;" edge="1" parent="1" target="m83WT8vD0n_hC-5zdwhu-46">
          <mxGeometry width="50" height="50" relative="1" as="geometry">
            <mxPoint x="700" y="40" as="sourcePoint" />
            <mxPoint x="780" y="170" as="targetPoint" />
          </mxGeometry>
        </mxCell>
        <mxCell id="m83WT8vD0n_hC-5zdwhu-69" value="" style="endArrow=classic;html=1;rounded=0;entryX=1;entryY=0;entryDx=0;entryDy=0;exitX=0;exitY=1;exitDx=0;exitDy=0;" edge="1" parent="1" source="m83WT8vD0n_hC-5zdwhu-52" target="m83WT8vD0n_hC-5zdwhu-58">
          <mxGeometry width="50" height="50" relative="1" as="geometry">
            <mxPoint x="660" y="230" as="sourcePoint" />
            <mxPoint x="720" y="200" as="targetPoint" />
          </mxGeometry>
        </mxCell>
        <mxCell id="m83WT8vD0n_hC-5zdwhu-70" value="a, b" style="edgeLabel;html=1;align=center;verticalAlign=middle;resizable=0;points=[];" vertex="1" connectable="0" parent="m83WT8vD0n_hC-5zdwhu-69">
          <mxGeometry x="-0.2088" y="2" relative="1" as="geometry">
            <mxPoint x="-7" y="-6" as="offset" />
          </mxGeometry>
        </mxCell>
        <mxCell id="m83WT8vD0n_hC-5zdwhu-73" value="" style="endArrow=classic;html=1;rounded=0;exitX=1;exitY=1;exitDx=0;exitDy=0;entryX=0;entryY=0;entryDx=0;entryDy=0;" edge="1" parent="1" source="m83WT8vD0n_hC-5zdwhu-58" target="m83WT8vD0n_hC-5zdwhu-67">
          <mxGeometry width="50" height="50" relative="1" as="geometry">
            <mxPoint x="660" y="280" as="sourcePoint" />
            <mxPoint x="710" y="230" as="targetPoint" />
          </mxGeometry>
        </mxCell>
        <mxCell id="m83WT8vD0n_hC-5zdwhu-74" value="⟂" style="edgeLabel;html=1;align=center;verticalAlign=middle;resizable=0;points=[];fontSize=10;" vertex="1" connectable="0" parent="m83WT8vD0n_hC-5zdwhu-73">
          <mxGeometry x="0.0462" y="-1" relative="1" as="geometry">
            <mxPoint y="-12" as="offset" />
          </mxGeometry>
        </mxCell>
        <mxCell id="m83WT8vD0n_hC-5zdwhu-77" value="" style="endArrow=classic;html=1;rounded=0;" edge="1" parent="1">
          <mxGeometry width="50" height="50" relative="1" as="geometry">
            <mxPoint x="250" y="239.52" as="sourcePoint" />
            <mxPoint x="310" y="239.52" as="targetPoint" />
          </mxGeometry>
        </mxCell>
        <mxCell id="m83WT8vD0n_hC-5zdwhu-78" value="" style="endArrow=classic;html=1;rounded=0;" edge="1" parent="1">
          <mxGeometry width="50" height="50" relative="1" as="geometry">
            <mxPoint x="530" y="239.52" as="sourcePoint" />
            <mxPoint x="590" y="239.52" as="targetPoint" />
          </mxGeometry>
        </mxCell>
        <mxCell id="m83WT8vD0n_hC-5zdwhu-79" value="&lt;font style=&quot;font-size: 12px;&quot; face=&quot;Courier New&quot;&gt;&lt;font style=&quot;font-size: 12px;&quot;&gt;&lt;font style=&quot;font-size: 12px;&quot;&gt;A&amp;nbsp;→ cC&lt;br style=&quot;&quot;&gt;B → dC&lt;br&gt;&lt;/font&gt;&lt;/font&gt;&lt;font style=&quot;font-size: 12px;&quot;&gt;D&amp;nbsp;&lt;/font&gt;→ dC&lt;br&gt;&lt;font style=&quot;font-size: 12px;&quot;&gt;C&amp;nbsp;&lt;/font&gt;→ cF | aE | bG&lt;br&gt;&lt;font style=&quot;font-size: 12px;&quot;&gt;E&amp;nbsp;&lt;/font&gt;→ —B | _I&lt;br&gt;&lt;font style=&quot;font-size: 12px;&quot;&gt;G&amp;nbsp;&lt;/font&gt;→ —D | _I&lt;br&gt;&lt;font style=&quot;font-size: 12px;&quot;&gt;F&amp;nbsp;&lt;/font&gt;→ zC | _I&lt;br&gt;&lt;font style=&quot;font-size: 12px;&quot;&gt;H&amp;nbsp;&lt;/font&gt;→ bE | aI&lt;br&gt;&lt;font style=&quot;font-size: 12px;&quot;&gt;J&amp;nbsp;&lt;/font&gt;→ aG | bI&lt;br&gt;&lt;font style=&quot;font-size: 12px;&quot;&gt;I&amp;nbsp;&lt;/font&gt;→&amp;nbsp;ε&lt;/font&gt;&lt;font face=&quot;Courier New&quot; style=&quot;font-size: 12px;&quot;&gt;&lt;br style=&quot;font-size: 12px;&quot;&gt;&lt;/font&gt;" style="text;html=1;strokeColor=none;fillColor=none;align=left;verticalAlign=top;whiteSpace=wrap;rounded=0;fontSize=12;fontStyle=1" vertex="1" parent="1">
          <mxGeometry x="40" y="360" width="200" height="170" as="geometry" />
        </mxCell>
      </root>
    </mxGraphModel>
  </diagram>
</mxfile>
